<?xml version="1.0" standalone="no"?>
<!DOCTYPE svg PUBLIC "-//W3C//DTD SVG 20010904//EN"
 "http://www.w3.org/TR/2001/REC-SVG-20010904/DTD/svg10.dtd">
<svg version="1.0" xmlns="http://www.w3.org/2000/svg"
 width="300.000000pt" height="169.000000pt" viewBox="0 0 300.000000 169.000000"
 preserveAspectRatio="xMidYMid meet">
<metadata>
Created by potrace 1.10, written by Peter Selinger 2001-2011
</metadata>
<g transform="translate(0.000000,169.000000) scale(0.100000,-0.100000)"
fill="#000000" stroke="none">
<path d="M490 953 l0 -528 121 -108 122 -107 693 0 694 0 0 635 0 635 -815 0
-815 0 0 -527z m1620 -108 l0 -625 -676 2 -677 3 2 103 2 102 -130 0 -131 0 0
520 0 520 805 0 805 0 0 -625z m-1370 -526 l0 -101 -97 88 c-54 48 -105 93
-113 100 -12 12 3 14 98 14 l112 0 0 -101z"/>
</g>
</svg>
