<?xml version="1.0" standalone="no"?>
<!DOCTYPE svg PUBLIC "-//W3C//DTD SVG 20010904//EN"
 "http://www.w3.org/TR/2001/REC-SVG-20010904/DTD/svg10.dtd">
<svg version="1.0" xmlns="http://www.w3.org/2000/svg"
 width="300.000000pt" height="556.000000pt" viewBox="0 0 300.000000 556.000000"
 preserveAspectRatio="xMidYMid meet">
<metadata>
Created by potrace 1.10, written by Peter Selinger 2001-2011
</metadata>
<g transform="translate(0.000000,556.000000) scale(0.100000,-0.100000)"
fill="#000000" stroke="none">
<path d="M2034 5491 c-89 -24 -184 -70 -293 -139 -46 -30 -109 -65 -140 -79
-31 -14 -84 -38 -119 -54 -35 -16 -67 -29 -71 -29 -10 0 -102 -51 -168 -93
-69 -44 -214 -169 -292 -253 -58 -62 -84 -101 -121 -179 -70 -146 -85 -203
-83 -315 1 -52 6 -117 13 -144 15 -66 104 -267 149 -336 60 -92 168 -321 187
-395 23 -96 15 -244 -20 -349 -39 -114 -177 -347 -291 -491 -59 -75 -243 -340
-287 -415 -25 -41 -72 -115 -105 -165 -141 -212 -202 -329 -233 -450 -5 -16
-18 -55 -29 -85 -37 -97 -52 -207 -47 -337 5 -114 7 -133 23 -198 4 -16 8 -34
9 -40 4 -44 33 -122 80 -219 13 -28 24 -55 24 -62 0 -6 7 -18 16 -25 9 -7 30
-36 46 -64 16 -27 44 -70 63 -95 19 -25 54 -74 79 -110 63 -91 82 -110 160
-164 103 -70 241 -134 324 -151 98 -21 212 -7 286 33 156 85 183 111 314 307
125 185 299 386 397 456 22 16 49 36 60 45 128 99 204 147 365 229 289 149
468 307 525 465 20 55 20 54 40 192 35 234 -18 570 -160 1023 -86 274 -114
372 -159 555 -72 297 -80 343 -80 480 0 161 21 238 115 428 64 130 71 150 80
235 6 50 11 94 12 97 5 35 -43 159 -96 241 -36 58 -80 162 -92 219 -7 34 -31
91 -82 198 -35 72 -150 194 -210 222 -66 31 -106 33 -189 11z m134 -17 c27 -7
112 -52 112 -60 0 -2 -17 3 -37 12 -44 19 -201 27 -220 12 -7 -6 -19 -8 -27
-5 -7 3 -29 -5 -49 -18 -30 -21 -37 -22 -47 -10 -10 12 -9 15 3 15 9 0 34 9
56 21 22 11 46 17 52 13 7 -4 9 -3 5 4 -4 6 1 11 11 11 10 0 34 4 53 9 19 6
41 8 48 6 8 -2 26 -7 40 -10z m33 -65 c106 -23 198 -154 270 -384 17 -55 50
-133 75 -174 24 -40 44 -82 44 -92 0 -10 9 -42 21 -70 20 -51 20 -56 4 -183
-18 -149 -26 -180 -68 -250 -61 -104 -75 -133 -102 -216 -23 -69 -28 -102 -27
-176 0 -92 26 -269 41 -288 14 -18 41 -108 91 -305 27 -102 63 -231 80 -286
18 -55 37 -122 42 -150 6 -27 18 -72 28 -100 30 -80 57 -174 75 -260 9 -44 21
-90 25 -102 8 -20 33 -178 45 -293 9 -78 6 -152 -8 -210 -4 -14 -9 -48 -11
-76 -7 -65 -58 -218 -83 -247 -10 -12 -27 -39 -37 -59 -48 -95 -216 -234 -319
-265 -27 -8 -85 -34 -129 -59 -44 -24 -82 -44 -84 -44 -10 0 -200 -121 -259
-165 -97 -73 -213 -194 -283 -295 -219 -320 -270 -374 -417 -448 -22 -12 -56
-23 -75 -27 -125 -21 -185 -26 -261 -22 -118 6 -223 56 -325 154 -85 82 -89
87 -235 303 -58 87 -112 238 -145 407 -29 148 -16 443 25 543 10 25 28 72 40
105 29 80 98 220 125 253 12 15 56 80 97 145 104 165 215 332 263 397 23 30
49 66 59 80 10 14 31 43 48 65 108 145 157 220 247 382 117 210 114 202 111
311 -2 53 -7 113 -12 132 -25 98 -43 147 -62 170 -27 31 -95 154 -95 170 0 7
-20 42 -44 79 -42 64 -77 132 -110 216 -19 49 -41 163 -33 172 4 3 2 14 -4 24
-15 30 -12 197 5 262 17 62 49 132 66 142 6 4 17 21 25 38 27 57 42 78 87 125
129 137 323 279 418 307 41 12 290 136 365 182 38 24 78 43 90 43 11 1 38 8
60 16 93 36 166 42 256 23z m465 -768 c7 -30 10 -59 6 -65 -4 -6 -7 -35 -8
-64 0 -29 -6 -58 -12 -64 -17 -17 -23 -6 -13 28 11 42 8 208 -5 225 -6 8 -11
21 -11 29 -1 8 -3 24 -7 35 -3 11 4 0 16 -25 12 -25 27 -69 34 -99z m-1765 76
c-10 -27 -31 -37 -31 -16 0 14 34 59 38 50 1 -5 -2 -20 -7 -34z m-78 -147 c-3
-12 -8 -19 -11 -16 -5 6 5 36 12 36 2 0 2 -9 -1 -20z m-17 -48 c-16 -27 -24
-178 -11 -232 3 -14 7 -48 9 -77 3 -28 9 -61 15 -72 7 -12 8 -21 3 -21 -13 0
-41 91 -47 154 -3 33 -8 62 -10 65 -3 2 0 10 6 18 7 7 7 13 2 13 -6 0 -8 12
-6 28 14 87 26 132 34 132 6 0 8 -4 5 -8z m1845 -116 c-10 -26 -31 -33 -26 -9
2 10 4 21 4 24 1 3 7 6 15 6 10 0 12 -6 7 -21z m-128 -266 c-3 -11 -10 -20
-15 -20 -5 0 -6 -5 -2 -12 4 -7 3 -8 -4 -4 -9 5 -7 14 4 32 20 29 24 30 17 4z
m-28 -97 c-8 -25 -20 -50 -27 -54 -11 -7 -10 -9 1 -9 10 0 11 -7 6 -27 -4 -16
-8 -34 -8 -40 0 -15 -27 -18 -27 -3 0 24 22 110 29 110 3 0 8 12 9 26 2 30 9
44 22 44 5 0 3 -21 -5 -47z m-30 -229 c6 -91 12 -132 24 -174 6 -19 11 -46 11
-60 -1 -22 -2 -23 -11 -7 -5 9 -7 22 -3 28 3 6 2 14 -4 18 -7 4 -13 16 -15 26
-1 11 -7 26 -12 34 -5 10 -4 16 3 19 9 3 9 9 1 23 -11 21 -21 148 -12 162 9
16 14 0 18 -69z m-1355 -244 c11 -23 18 -45 15 -51 -4 -5 -2 -15 3 -22 11 -14
22 -56 29 -112 6 -55 6 -58 -2 -77 -5 -12 -3 -18 6 -18 8 0 5 -6 -7 -16 -10
-8 -14 -13 -8 -10 7 3 11 -8 12 -29 1 -28 -2 -33 -16 -29 -13 5 -14 4 -3 -4
14 -10 7 -52 -9 -52 -5 0 -14 -16 -20 -35 -6 -19 -16 -37 -21 -40 -5 -4 -5 3
0 17 37 88 55 294 33 373 -19 71 -33 120 -38 133 -13 30 8 8 26 -28z m1771
-1657 c-8 -15 -10 -15 -11 -2 0 17 10 32 18 25 2 -3 -1 -13 -7 -23z m-7 -85
c-4 -35 -7 -76 -6 -91 1 -16 -3 -25 -9 -22 -6 4 -7 -3 -3 -21 4 -15 3 -25 -2
-22 -5 4 -10 -10 -11 -29 -1 -20 -7 -41 -12 -46 -6 -6 -11 -19 -11 -29 0 -10
-4 -18 -9 -18 -5 0 -12 -11 -15 -25 -6 -24 -110 -137 -151 -164 -11 -8 -5 0
13 18 18 17 30 31 28 31 -3 0 6 12 19 26 13 14 29 41 35 60 6 19 15 34 19 34
9 0 46 63 43 73 -1 4 5 21 14 38 8 17 13 33 10 37 -3 3 -1 11 5 19 6 7 8 13 3
13 -5 0 -3 4 5 9 9 6 14 28 14 67 -1 57 10 104 23 104 3 0 2 -28 -2 -62z
m-2727 -378 c-1 -11 -5 -20 -9 -20 -10 0 -10 4 -2 24 8 22 13 20 11 -4z m-8
-82 c-11 -62 -3 -292 14 -363 28 -119 60 -230 70 -243 7 -9 6 -11 -6 -6 -13 5
-26 23 -32 44 0 3 -7 22 -14 42 -7 21 -9 43 -5 49 5 8 3 9 -6 4 -10 -6 -12 -3
-8 13 4 12 3 22 -1 22 -8 0 -30 84 -29 110 0 8 -3 42 -7 75 -11 98 -12 174 -2
168 5 -3 4 4 -2 16 -7 12 -8 21 -2 21 5 0 7 9 4 19 -3 10 2 30 11 43 9 14 13
28 9 33 -5 4 -3 5 3 2 8 -5 9 -20 3 -49z m2236 -188 c-9 -14 -105 -62 -105
-52 0 15 59 52 74 46 10 -4 18 1 22 10 4 9 9 15 11 12 3 -3 2 -10 -2 -16z
m-115 -55 c0 -8 -6 -15 -14 -15 -8 0 -16 -4 -18 -9 -1 -4 -14 -12 -28 -16 -29
-9 -26 -4 20 29 43 30 40 29 40 11z m-90 -57 c0 -4 -5 -8 -11 -8 -6 0 -26 -12
-45 -26 -26 -20 -34 -23 -34 -11 0 8 14 21 30 29 17 7 30 16 30 19 0 3 7 6 15
6 8 0 15 -4 15 -9z m-116 -73 c-11 -7 -32 -25 -49 -39 -16 -14 -35 -26 -41
-26 -7 0 -14 -6 -17 -14 -3 -8 -16 -20 -28 -26 -14 -8 -19 -8 -15 -1 4 7 1 9
-8 5 -9 -3 -14 -11 -13 -17 1 -6 -9 -16 -23 -24 -14 -7 -21 -13 -16 -13 14 0
-68 -70 -82 -70 -22 0 128 144 196 189 35 22 67 41 71 41 5 0 15 7 22 16 9 11
15 12 17 4 2 -6 -4 -18 -14 -25z m-322 -272 c-16 -21 -40 -47 -52 -58 l-23
-20 18 30 c24 39 66 85 78 85 5 0 -5 -17 -21 -37z m-1348 -248 l17 -30 -20 24
c-12 13 -21 28 -21 34 0 12 0 11 24 -28z m1080 -107 c-42 -72 -163 -193 -221
-223 -21 -10 -46 -26 -55 -34 -15 -11 -18 -12 -18 -1 0 9 -4 8 -13 -4 -8 -11
-27 -18 -49 -19 -20 0 -34 -5 -32 -9 3 -5 -12 -8 -33 -7 -21 2 -44 0 -50 -4
-7 -4 -14 -3 -17 1 -3 5 -18 7 -33 4 -26 -5 -27 -4 -13 14 11 15 11 16 0 7
-16 -15 -60 -17 -60 -4 0 4 -10 8 -22 7 -13 0 -22 4 -21 9 1 6 -12 10 -28 11
-34 1 -47 10 -33 24 7 7 102 0 164 -13 3 0 30 3 60 8 30 4 62 9 70 10 9 0 22
5 29 10 10 5 12 4 7 -3 -9 -14 -4 -15 26 -3 23 9 51 19 66 22 4 1 24 13 44 25
21 13 44 24 53 24 8 0 15 4 15 8 0 5 16 16 35 25 19 9 35 21 35 27 0 5 7 10
15 10 8 0 14 4 13 8 -3 10 53 80 65 81 5 1 5 -5 1 -11z m-924 -68 c6 0 10 -7
10 -15 0 -8 12 -21 28 -29 20 -11 22 -15 9 -16 -10 0 -42 24 -72 54 -62 61
-74 85 -20 37 20 -17 40 -31 45 -31z m113 -92 c15 -7 27 -16 27 -20 0 -5 9 -8
20 -8 11 0 20 -4 20 -10 0 -15 -11 -12 -65 20 -50 30 -52 41 -2 18z m105 -56
c2 -7 -6 -12 -17 -12 -21 0 -27 11 -14 24 9 9 26 2 31 -12z"/>
<path d="M2331 3544 c0 -11 3 -14 6 -6 3 7 2 16 -1 19 -3 4 -6 -2 -5 -13z"/>
<path d="M725 2330 c3 -5 8 -10 11 -10 2 0 4 5 4 10 0 6 -5 10 -11 10 -5 0 -7
-4 -4 -10z"/>
<path d="M2910 3181 c0 -10 29 -36 34 -30 1 2 -6 12 -16 22 -10 9 -18 13 -18
8z"/>
<path d="M2831 3004 c0 -11 3 -14 6 -6 3 7 2 16 -1 19 -3 4 -6 -2 -5 -13z"/>
<path d="M2840 2619 c0 -5 5 -7 10 -4 6 3 10 8 10 11 0 2 -4 4 -10 4 -5 0 -10
-5 -10 -11z"/>
<path d="M2831 124 c0 -11 3 -14 6 -6 3 7 2 16 -1 19 -3 4 -6 -2 -5 -13z"/>
</g>
</svg>
